<svg width="401" height="200" xmlns="http://www.w3.org/2000/svg" xmlns:xlink="http://www.w3.org/1999/xlink" overflow="hidden"><defs><clipPath id="clip0"><rect x="0" y="0" width="401" height="200"/></clipPath></defs><g clip-path="url(#clip0)"><rect x="0" y="0" width="401" height="200.499" fill="#FFFFFF"/><rect x="0" y="0" width="401" height="200.499" fill="#FFFF00"/><text fill="#002060" font-family="Georgia,Georgia_MSFontService,sans-serif" font-weight="400" font-size="68" transform="matrix(1 0 0 0.997506 9.60799 84)">ESSENTIAL</text><text fill="#002060" font-family="Georgia,Georgia_MSFontService,sans-serif" font-weight="400" font-size="68" transform="matrix(1 0 0 0.997506 9.60799 165)">INDIA</text><rect x="218" y="113.716" width="183" height="56.8579" fill="#FFFFFF"/><text fill="#FFFFFF" font-family="Georgia,Georgia_MSFontService,sans-serif" font-weight="400" font-size="67" transform="matrix(1 0 0 0.997506 300.517 166)">.</text><rect x="225" y="117.706" width="6.99994" height="47.8803" fill="#00B050"/><rect x="253" y="117.706" width="7.99992" height="47.8803" fill="#FFCC00"/><rect x="239" y="117.706" width="6.99994" height="47.8803" fill="#00B0F0"/><rect x="268" y="117.706" width="7.00003" height="46.8828" fill="#F7753B"/><rect x="282" y="117.706" width="7.00003" height="46.8828" fill="#FF9900"/><rect x="296" y="117.706" width="8.00003" height="46.8828" fill="#BF9000"/><rect x="310" y="117.706" width="7.99994" height="46.8828" fill="#548235"/><text fill="#002060" font-family="Georgia,Georgia_MSFontService,sans-serif" font-weight="400" font-size="68" transform="matrix(1 0 0 0.997506 321.453 163)">.</text><text fill="#002060" font-family="Georgia,Georgia_MSFontService,sans-serif" font-weight="400" font-size="68" transform="matrix(1 0 0 0.997506 338.051 163)">.</text><text fill="#002060" font-family="Georgia,Georgia_MSFontService,sans-serif" font-weight="400" font-size="68" transform="matrix(1 0 0 0.997506 355.364 163)">.</text></g></svg>